# xmcd
# 
# Track frame offsets:
#     150
#     33918
#     50694
#     244244
# 
# Disc length: 3578
# 
# Revision: 0
# Processed by: cddbd v1.5.2PL0 Copyright (c) Steve Scherf et al.
# Submitted via: fre:ac v1.0.17
# 
DISCID=2f0df804
DTITLE=高坂海美(CV.上田麗奈)、所 恵美(CV.藤井ゆきよ)、高山紗代子(CV.駒形友梨)、豊川風花(CV.末柄里恵)、横山奈緒 (CV.渡部優衣) - THE IDOLM@STER THE@TER BOOST 01
DYEAR=2018
DGENRE=Game
TTITLE0=ドラマ『ビッグバンズバリボー!!!!!』／『プロローグ!!』
TTITLE1=ビッグバンズバリボー!!!!!
TTITLE2=ドラマ『ビッグバンズバリボー!!!!!』／『激突!!帝花女学院!!』
TTITLE3=DIAMOND DAYS
EXTD=
EXTT0=
EXTT1=
EXTT2=
EXTT3=
PLAYORDER=
